<svg width="1136" height="692" viewBox="0 0 1136 692" fill="none" xmlns="http://www.w3.org/2000/svg">
<g id="Group 1">
<g id="undraw_positive_attitude_xaae 1" clip-path="url(#clip0)">
<path id="Vector" d="M791.78 331.491C791.78 331.491 746.082 322.235 751.867 341.903C757.651 361.571 795.829 348.844 795.829 348.844L791.78 331.491Z" fill="#FFB8B8"/>
<path id="Vector_2" d="M890.368 227.607C890.937 227.089 891.635 226.734 892.388 226.579C893.141 226.424 893.923 226.474 894.65 226.725C895.377 226.975 896.023 227.417 896.521 228.003C897.019 228.589 897.35 229.299 897.479 230.057L899.041 239.129C899.041 239.129 906.102 275.415 900.056 298.465C894.011 321.514 889.72 351.877 873.382 355.111C859.401 357.879 806.243 353.496 791.194 352.173C790.11 352.078 789.103 351.574 788.378 350.763C787.652 349.953 787.262 348.897 787.287 347.809L787.568 334.569C787.591 333.526 787.992 332.527 788.698 331.758C789.404 330.99 790.365 330.505 791.402 330.394L852.264 323.903C853.215 323.804 854.104 323.389 854.792 322.725C855.479 322.061 855.924 321.186 856.057 320.239C857.504 309.885 862.186 277.783 866.836 260.906C870.593 247.267 882.934 234.391 890.368 227.607Z" fill="#575A89"/>
<path id="Vector_3" d="M1136 668.253H716V670.253H1136V668.253Z" fill="#3F3D56"/>
<path id="Vector_4" d="M850.822 614.608V642.374L866.44 645.844L876.853 640.638L875.696 618.657L850.822 614.608Z" fill="#FFB8B8"/>
<path id="Vector_5" d="M943.086 614.608V642.374L958.705 645.844L969.117 640.638L967.96 618.657L943.086 614.608Z" fill="#FFB8B8"/>
<path id="Vector_6" d="M882.059 389.009C882.059 389.009 861.234 431.236 861.813 464.208C862.161 484.111 861.195 504.015 858.921 523.79L848.508 622.706L882.059 624.442L897.677 518.005L927.757 435.864L939.326 533.623L942.219 631.961H971.142C971.142 631.961 984.446 538.83 976.926 518.005C976.926 518.005 994.28 401.156 980.397 395.372C966.514 389.587 882.059 389.009 882.059 389.009Z" fill="#2F2E41"/>
<path id="Vector_7" d="M861.234 634.854C861.234 634.854 855.45 613.451 847.351 624.442C839.253 635.432 816.115 653.943 816.115 653.943C816.115 653.943 781.407 672.454 813.222 677.081C845.038 681.709 848.508 671.297 848.508 671.297C848.508 671.297 853.714 668.404 858.342 670.14C862.97 671.875 883.216 671.297 884.373 664.355C885.53 657.414 878.01 619.235 875.696 626.177C873.382 633.118 861.234 634.854 861.234 634.854Z" fill="#3F3D56"/>
<path id="Vector_8" d="M967.671 634.275C967.671 634.275 967.671 627.912 956.68 627.334C945.689 626.755 943.954 634.275 943.954 634.275C943.954 634.275 941.062 637.168 940.483 645.844C939.905 654.521 940.483 677.081 940.483 677.081C940.483 677.081 935.277 694.435 958.994 690.964C982.711 687.493 974.034 669.561 974.034 669.561L967.671 634.275Z" fill="#3F3D56"/>
<path id="Vector_9" d="M925.443 173.244L922.551 205.637L917.345 217.785L931.228 237.453L965.357 205.637C965.357 205.637 958.994 188.284 963.043 178.45L925.443 173.244Z" fill="#FFB8B8"/>
<path id="Vector_10" d="M1002.96 228.776L1002.69 231.628L992.545 339.84C992.545 339.84 992.145 344.872 991.405 351.583C990.155 362.932 987.934 379.077 985.025 383.803C980.397 391.323 983.868 397.686 983.868 397.686C957.259 413.304 878.588 390.744 878.588 390.744L896.52 319.015C896.52 319.015 880.324 244.394 882.059 237.453C883.794 230.511 920.237 205.637 920.237 205.637L921.313 208.53C936.845 229.354 952.631 211.422 957.259 207.373L966.514 199.274L1002.96 228.776Z" fill="#3F3D56"/>
<path id="Vector_11" d="M884 427.253C828.851 434.735 776.238 437.473 727.555 432.867C710.267 431.114 693.121 428.17 676.239 424.055C645.284 416.727 607.286 416.728 565.539 420.629C540.157 422.889 515.14 428.195 491.025 436.432C458.673 447.631 423.232 446.662 385.657 437.287C370.236 433.272 355.375 427.354 341.415 419.671C313.944 404.909 281.433 410.253 246 427.253V295.253C279.081 280.846 311.307 278.52 342.51 290.665C353.885 295.208 365.646 298.717 377.651 301.148C421.016 309.624 465.779 307.603 508.203 295.253C565.572 275.814 625.582 281.857 686.354 295.253C754.061 309.554 820.051 310.397 884 295.253V427.253Z" fill="#3F3D56"/>
<path id="Vector_12" d="M420 668.253H0V670.253H420V668.253Z" fill="#3F3D56"/>
<path id="Vector_13" d="M519.812 49.8171L551.395 31.5828L533.16 -1.38113e-05L501.578 18.2343L519.812 49.8171Z" fill="#FF6584"/>
<path id="Vector_14" d="M406.234 205.817L437.817 187.583L419.583 156L388 174.234L406.234 205.817Z" fill="#3F3D56"/>
<path id="Vector_15" d="M847.234 58.8171L878.817 40.5828L860.583 9.00001L829 27.2343L847.234 58.8171Z" fill="#D0CDE1"/>
<path id="Vector_16" d="M702.234 173.817L733.817 155.583L715.583 124L684 142.234L702.234 173.817Z" fill="#40CFD4"/>
<path id="Vector_17" d="M178.85 423.599L197.947 512.01L139.949 642.15L173.899 657.004L238.969 507.766L197.372 376.702L172.617 383.068L178.85 423.599Z" fill="#2F2E41"/>
<path id="Vector_18" d="M161.875 399.29C161.875 399.29 168.948 412.021 184.508 422.63C200.069 433.24 232.604 503.261 232.604 503.261L197.24 644.719L246.042 658.157L272.919 491.944L217.751 367.462L161.875 399.29Z" fill="#2F2E41"/>
<path id="Vector_19" d="M144.193 637.199C144.193 637.199 137.12 644.98 139.949 650.638C142.778 656.296 144.193 671.149 144.193 671.149H150.559V654.174L171.07 673.271C171.07 673.271 218.458 677.515 217.751 673.271C217.044 669.027 189.459 659.125 189.459 659.125L176.021 638.614L144.193 637.199Z" fill="#3F3D56"/>
<path id="Vector_20" d="M206.434 639.06C206.434 639.06 199.361 646.84 202.191 652.499C205.02 658.157 206.434 673.01 206.434 673.01H212.8V656.035L233.311 675.132C233.311 675.132 280.699 679.376 279.992 675.132C279.285 670.888 251.701 660.986 251.701 660.986L238.262 640.475L206.434 639.06Z" fill="#3F3D56"/>
<path id="Vector_21" d="M189.459 205.493C204.303 205.493 216.336 193.46 216.336 178.616C216.336 163.772 204.303 151.739 189.459 151.739C174.616 151.739 162.582 163.772 162.582 178.616C162.582 193.46 174.616 205.493 189.459 205.493Z" fill="#A0616A"/>
<path id="Vector_22" d="M167.533 180.031C167.533 180.031 165.412 206.908 151.973 216.81C138.535 226.712 138.535 235.199 138.535 235.199L192.996 259.954L180.265 233.077C180.265 233.077 176.728 231.663 182.386 224.59C188.045 217.517 192.996 200.542 192.996 200.542L167.533 180.031Z" fill="#A0616A"/>
<path id="Vector_23" d="M223.056 370.645C208.34 383.492 191.291 393.388 172.837 399.796L160 404.253C160 404.253 132.855 371.309 146.562 345.352C149.378 339.865 153.405 335.091 158.339 331.39L158.056 330.152L151.174 300.128L150.559 297.44L130.047 292.489C130.047 292.489 129.983 292.511 129.863 292.539C128.329 292.942 117.924 294.852 125.803 270.563C131.045 254.402 134.846 239.014 136.986 229.608C137.282 228.295 137.841 227.055 138.629 225.963C139.417 224.871 140.418 223.95 141.571 223.255C142.725 222.56 144.007 222.105 145.34 221.919C146.674 221.732 148.031 221.817 149.331 222.169C155.899 223.97 164.058 227.39 168.948 233.784C178.143 245.808 180 233.253 180 233.253C180 233.253 205.727 262.076 204.312 274.807C204.069 278.223 204.174 281.654 204.624 285.049V285.063C204.793 286.576 204.998 288.154 205.232 289.766C206.986 301.677 210.381 315.519 211.626 320.385C211.718 320.731 211.796 321.035 211.859 321.29C212.008 321.877 212.093 322.195 212.093 322.195L223.056 370.645Z" fill="#3F3D56"/>
<path id="Vector_24" opacity="0.2" d="M186.63 334.927L180.972 354.023C180.972 354.023 159.272 348.492 146.562 345.352C149.378 339.865 153.405 335.091 158.339 331.39L158.056 330.152L151.174 300.128L150.559 297.44L130.047 292.489C130.047 292.489 129.983 292.511 129.863 292.539L128.633 283.295C128.633 283.295 163.997 285.416 166.119 293.904C168.241 302.391 163.997 310.879 161.875 312.293C159.753 313.708 161.875 312.293 166.119 314.415C170.363 316.537 164.704 314.415 161.875 318.659C159.046 322.903 162.582 319.366 163.29 321.488C163.997 323.61 163.29 320.781 162.582 324.317C161.875 327.854 165.412 325.025 166.119 325.025C166.826 325.025 186.63 334.927 186.63 334.927Z" fill="black"/>
<path id="Vector_25" d="M180.265 331.39L226.238 343.414C226.238 343.414 250.993 317.952 264.432 325.732C277.87 333.512 240.384 351.194 240.384 351.194L226.946 354.023L178.143 348.365L180.265 331.39Z" fill="#A0616A"/>
<path id="Vector_26" d="M128.633 280.465L131.462 301.684C131.462 301.684 129.34 301.684 131.462 306.635C133.584 311.586 131.462 321.488 131.462 321.488C131.462 321.488 127.218 322.195 130.754 324.317C134.291 326.439 137.827 332.097 136.413 334.219C134.998 336.341 132.169 339.17 138.535 340.585C144.9 341.999 180.972 351.194 180.972 351.194L186.63 332.097C186.63 332.097 166.826 322.195 166.119 322.195C165.412 322.195 161.875 325.025 162.582 321.488C163.29 317.952 163.997 320.781 163.29 318.659C162.582 316.537 159.046 320.073 161.875 315.83C164.704 311.586 170.363 313.708 166.119 311.586C161.875 309.464 159.753 310.879 161.875 309.464C163.997 308.05 168.241 299.562 166.119 291.075C163.997 282.587 128.633 280.465 128.633 280.465Z" fill="#575A89"/>
<path id="Vector_27" d="M183.261 226.113L185.392 222.724C186.391 221.136 186.718 219.216 186.302 217.386C185.885 215.557 184.758 213.968 183.17 212.969L166.931 202.756C165.343 201.757 163.423 201.43 161.593 201.846C159.764 202.263 158.175 203.39 157.176 204.978L155.044 208.367C153.844 208.361 152.662 208.661 151.609 209.238C150.557 209.816 149.67 210.652 149.03 211.668L143.786 220.007C142.787 221.595 142.46 223.515 142.877 225.345C143.294 227.174 144.42 228.763 146.008 229.762L167.891 243.525C169.479 244.523 171.399 244.851 173.229 244.434C175.058 244.017 176.647 242.891 177.646 241.302L182.89 232.964C183.529 231.948 183.898 230.785 183.963 229.587C184.028 228.388 183.787 227.192 183.261 226.113V226.113Z" fill="#3F3D56"/>
<path id="Vector_28" d="M188.523 178.154C190.026 175.958 189.367 172.907 190.443 170.472C192.133 166.65 197.116 165.866 201.288 165.614C204.055 165.327 206.847 165.402 209.594 165.838C210.807 166.07 211.95 166.58 212.932 167.329C213.914 168.078 214.709 169.045 215.253 170.154C215.839 171.404 215.778 167.53 215.503 162.552C215.227 157.472 213.345 152.612 210.128 148.67C206.912 144.729 202.527 141.91 197.606 140.621C197.547 140.606 197.489 140.591 197.432 140.576C192.391 139.284 187.186 138.297 182.005 138.778C176.824 139.26 171.62 141.366 168.297 145.37C166.778 147.2 165.683 149.375 163.997 151.051C161.033 153.997 156.722 154.991 152.752 156.295C148.205 157.641 143.994 159.936 140.399 163.029C136.792 166.169 134.567 170.604 134.208 175.373C133.991 180.881 137.358 186.652 142.98 187.875C143.958 188.07 144.876 188.493 145.66 189.11C150.952 193.422 144.694 197.65 144.622 202.358C144.563 206.287 148.874 208.953 152.793 209.231C156.46 209.386 160.066 208.261 162.994 206.048C165.922 203.836 167.99 200.673 168.842 197.104C169.512 193.894 169.135 190.573 168.829 187.309C168.479 183.572 176.714 174.994 171.259 181.296C170.195 182.493 169.461 183.946 169.129 185.513C168.123 190.629 172.755 192.47 175.634 195.387C177.214 197.037 178.3 199.095 178.768 201.33C179.237 203.565 179.07 205.887 178.286 208.032C180.771 205.888 182.429 202.945 182.975 199.71C183.52 196.475 182.92 193.15 181.277 190.311C180.362 188.831 179.169 187.535 178.305 186.026C176.956 183.671 176.691 178.614 180.62 178.848C183.425 179.015 186.285 181.423 188.523 178.154Z" fill="#40CFD4"/>
<path id="Vector_29" d="M945.111 188.862C961.404 188.862 974.612 175.654 974.612 159.361C974.612 143.067 961.404 129.859 945.111 129.859C928.818 129.859 915.609 143.067 915.609 159.361C915.609 175.654 928.818 188.862 945.111 188.862Z" fill="#FFB8B8"/>
<path id="Vector_30" opacity="0.2" d="M1001.53 232.784L991.388 340.997C991.388 340.997 990.988 346.029 990.248 352.739C968.712 357.888 909.246 361.821 909.246 361.821L906.354 340.997L972.298 323.064C972.298 323.064 964.2 277.945 973.455 259.434C975.722 254.931 977.749 250.311 979.528 245.594C981.15 241.244 984.229 237.591 988.241 235.255C992.253 232.92 996.95 232.047 1001.53 232.784V232.784Z" fill="black"/>
<path id="Vector_31" d="M912.717 338.104C912.717 338.104 867.019 328.849 872.804 348.517C878.588 368.184 916.766 355.458 916.766 355.458L912.717 338.104Z" fill="#FFB8B8"/>
<path id="Vector_32" d="M985.025 225.883L1002.96 228.776C1002.96 228.776 1015.68 263.483 1013.37 287.2C1011.06 310.917 1011.63 341.575 996.015 347.36C980.397 353.144 910.403 357.772 910.403 357.772L907.511 336.948L973.455 319.015C973.455 319.015 965.357 273.896 974.612 255.385C983.868 236.874 985.025 225.883 985.025 225.883Z" fill="#575A89"/>
<path id="Vector_33" d="M919.958 129.397L914.287 127.127C914.287 127.127 926.143 114.074 942.639 115.209L937.999 110.102C937.999 110.102 949.34 105.562 959.649 117.479C965.069 123.744 971.339 131.108 975.248 139.404H981.321L978.786 144.984L987.657 150.565L978.552 149.562C979.095 152.618 979.178 155.738 978.799 158.819C978.409 161.9 976.836 164.709 974.414 166.654C974.414 166.654 967.382 152.098 967.382 149.828V155.503C967.382 155.503 961.711 150.395 961.711 146.99L958.618 150.963H937.999L941.092 145.855L929.236 147.558L933.876 141.315L915.519 167.093C915.519 167.093 905.009 137.91 919.958 129.397Z" fill="#40CFD4"/>
<path id="Vector_34" d="M565 471.253C624.647 471.253 673 422.9 673 363.253C673 303.606 624.647 255.253 565 255.253C505.353 255.253 457 303.606 457 363.253C457 422.9 505.353 471.253 565 471.253Z" fill="#40CFD4"/>
<path id="Vector_35" d="M618 384.718C618 391.346 593.667 407.968 565.5 407.968C537.333 407.968 516 391.346 516 384.718C516 378.091 537.333 386.968 565.5 386.968C593.667 386.968 618 378.091 618 384.718Z" fill="#D0CDE1"/>
<path id="Vector_36" d="M604 344.253C610.627 344.253 616 338.88 616 332.253C616 325.625 610.627 320.253 604 320.253C597.373 320.253 592 325.625 592 332.253C592 338.88 597.373 344.253 604 344.253Z" fill="#3F3D56"/>
<path id="Vector_37" d="M526 344.253C532.627 344.253 538 338.88 538 332.253C538 325.625 532.627 320.253 526 320.253C519.373 320.253 514 325.625 514 332.253C514 338.88 519.373 344.253 526 344.253Z" fill="#3F3D56"/>
<path id="Vector_38" d="M533 332.253C536.314 332.253 539 329.567 539 326.253C539 322.939 536.314 320.253 533 320.253C529.686 320.253 527 322.939 527 326.253C527 329.567 529.686 332.253 533 332.253Z" fill="#D0CDE1"/>
<path id="Vector_39" d="M594 332.253C597.314 332.253 600 329.567 600 326.253C600 322.939 597.314 320.253 594 320.253C590.686 320.253 588 322.939 588 326.253C588 329.567 590.686 332.253 594 332.253Z" fill="#D0CDE1"/>
<path id="Vector_40" d="M397 332C400.314 332 403 329.314 403 326C403 322.686 400.314 320 397 320C393.686 320 391 322.686 391 326C391 329.314 393.686 332 397 332Z" fill="#FF6584"/>
<path id="Vector_41" d="M780 426C783.314 426 786 423.314 786 420C786 416.686 783.314 414 780 414C776.686 414 774 416.686 774 420C774 423.314 776.686 426 780 426Z" fill="#FF6584"/>
<path id="Vector_42" d="M870 313C873.314 313 876 310.314 876 307C876 303.686 873.314 301 870 301C866.686 301 864 303.686 864 307C864 310.314 866.686 313 870 313Z" fill="#FF6584"/>
<path id="Vector_43" d="M252 420C255.314 420 258 417.314 258 414C258 410.686 255.314 408 252 408C248.686 408 246 410.686 246 414C246 417.314 248.686 420 252 420Z" fill="#FF6584"/>
<path id="Vector_44" d="M567 262.253C590.748 262.253 610 243.001 610 219.253C610 195.505 590.748 176.253 567 176.253C543.252 176.253 524 195.505 524 219.253C524 243.001 543.252 262.253 567 262.253Z" fill="#40CFD4"/>
<path id="Vector_45" d="M553.191 223.704C568.376 232.744 568.922 259.836 568.922 259.836C568.922 259.836 544.846 272.27 529.66 263.23C514.474 254.189 513.929 227.098 513.929 227.098C513.929 227.098 538.005 214.663 553.191 223.704Z" fill="#3F3D56"/>
<path id="Vector_46" d="M606.916 258.328C593.192 269.463 567.576 260.629 567.576 260.629C567.576 260.629 564.21 233.741 577.934 222.606C591.658 211.471 617.275 220.305 617.275 220.305C617.275 220.305 620.641 247.193 606.916 258.328Z" fill="#3F3D56"/>
<path id="Thank You!" d="M456.438 629.438H441.812V670H435.844V629.438H421.25V624.5H456.438V629.438ZM468.062 640.281C470.625 637.135 473.958 635.562 478.062 635.562C485.208 635.562 488.812 639.594 488.875 647.656V670H483.094V647.625C483.073 645.188 482.51 643.385 481.406 642.219C480.323 641.052 478.625 640.469 476.312 640.469C474.438 640.469 472.792 640.969 471.375 641.969C469.958 642.969 468.854 644.281 468.062 645.906V670H462.281V622H468.062V640.281ZM518.406 670C518.073 669.333 517.802 668.146 517.594 666.438C514.906 669.229 511.698 670.625 507.969 670.625C504.635 670.625 501.896 669.688 499.75 667.812C497.625 665.917 496.562 663.521 496.562 660.625C496.562 657.104 497.896 654.375 500.562 652.438C503.25 650.479 507.021 649.5 511.875 649.5H517.5V646.844C517.5 644.823 516.896 643.219 515.688 642.031C514.479 640.823 512.698 640.219 510.344 640.219C508.281 640.219 506.552 640.74 505.156 641.781C503.76 642.823 503.062 644.083 503.062 645.562H497.25C497.25 643.875 497.844 642.25 499.031 640.688C500.24 639.104 501.865 637.854 503.906 636.938C505.969 636.021 508.229 635.562 510.688 635.562C514.583 635.562 517.635 636.542 519.844 638.5C522.052 640.438 523.198 643.115 523.281 646.531V662.094C523.281 665.198 523.677 667.667 524.469 669.5V670H518.406ZM508.812 665.594C510.625 665.594 512.344 665.125 513.969 664.188C515.594 663.25 516.771 662.031 517.5 660.531V653.594H512.969C505.885 653.594 502.344 655.667 502.344 659.812C502.344 661.625 502.948 663.042 504.156 664.062C505.365 665.083 506.917 665.594 508.812 665.594ZM537.812 636.188L538 640.438C540.583 637.188 543.958 635.562 548.125 635.562C555.271 635.562 558.875 639.594 558.938 647.656V670H553.156V647.625C553.135 645.188 552.573 643.385 551.469 642.219C550.385 641.052 548.688 640.469 546.375 640.469C544.5 640.469 542.854 640.969 541.438 641.969C540.021 642.969 538.917 644.281 538.125 645.906V670H532.344V636.188H537.812ZM577.094 654.344L573.469 658.125V670H567.688V622H573.469V651.031L576.562 647.312L587.094 636.188H594.125L580.969 650.312L595.656 670H588.875L577.094 654.344ZM630.75 647.344L642.625 624.5H649.438L633.75 653.031V670H627.75V653.031L612.062 624.5H618.938L630.75 647.344ZM650.812 652.781C650.812 649.469 651.458 646.49 652.75 643.844C654.062 641.198 655.875 639.156 658.188 637.719C660.521 636.281 663.177 635.562 666.156 635.562C670.76 635.562 674.479 637.156 677.312 640.344C680.167 643.531 681.594 647.771 681.594 653.062V653.469C681.594 656.76 680.958 659.719 679.688 662.344C678.438 664.948 676.635 666.979 674.281 668.438C671.948 669.896 669.26 670.625 666.219 670.625C661.635 670.625 657.917 669.031 655.062 665.844C652.229 662.656 650.812 658.438 650.812 653.188V652.781ZM656.625 653.469C656.625 657.219 657.49 660.229 659.219 662.5C660.969 664.771 663.302 665.906 666.219 665.906C669.156 665.906 671.49 664.76 673.219 662.469C674.948 660.156 675.812 656.927 675.812 652.781C675.812 649.073 674.927 646.073 673.156 643.781C671.406 641.469 669.073 640.312 666.156 640.312C663.302 640.312 661 641.448 659.25 643.719C657.5 645.99 656.625 649.24 656.625 653.469ZM709.719 666.656C707.469 669.302 704.167 670.625 699.812 670.625C696.208 670.625 693.458 669.583 691.562 667.5C689.688 665.396 688.74 662.292 688.719 658.188V636.188H694.5V658.031C694.5 663.156 696.583 665.719 700.75 665.719C705.167 665.719 708.104 664.073 709.562 660.781V636.188H715.344V670H709.844L709.719 666.656ZM730.625 657.156H725.406L725 624.5H731.062L730.625 657.156ZM724.781 667.094C724.781 666.156 725.062 665.375 725.625 664.75C726.208 664.104 727.062 663.781 728.188 663.781C729.312 663.781 730.167 664.104 730.75 664.75C731.333 665.375 731.625 666.156 731.625 667.094C731.625 668.031 731.333 668.812 730.75 669.438C730.167 670.042 729.312 670.344 728.188 670.344C727.062 670.344 726.208 670.042 725.625 669.438C725.062 668.812 724.781 668.031 724.781 667.094Z" fill="#40CFD4"/>
</g>
</g>
<defs>
<clipPath id="clip0">
<rect width="1136" height="691.423" fill="white"/>
</clipPath>
</defs>
</svg>
